<?xml version="1.0" encoding="utf-8"?>
<!-- Generator: Adobe Illustrator 24.3.0, SVG Export Plug-In . SVG Version: 6.00 Build 0)  -->
<svg version="1.1" id="Слой_5" xmlns="http://www.w3.org/2000/svg" xmlns:xlink="http://www.w3.org/1999/xlink" x="0px" y="0px"
	 viewBox="0 0 2252 3072" style="enable-background:new 0 0 2252 3072;" xml:space="preserve">
<style type="text/css">
	.st0{fill:#B49CEF;}
</style>
<g>
	<path class="st0" d="M987.74,1758.66c-1.2,1.92-1.31,4.04,0.48,5.38c4.14,3.08,8.5,5.86,12.8,8.73c7.21,4.8,14.43,9.57,21.65,14.35
		l0.37-0.01c-7.12-0.49-13.53-2.83-19.47-6.85c-3.37-2.28-6.97-4.62-10.81-5.74c-14.86-4.33-26.64-14.15-39.73-21.61
		c-6.47-3.69-11.86-8.75-16.67-14.46c-4.22-5-7.89-10.5-13.28-14.48c-1.59-1.17-2.72-3.08-3.76-4.84
		c-5.67-9.59-12.69-18.11-20.05-26.43c-7.15-8.1-12.33-17.64-15.52-27.81c-4.16-13.27-9.54-26.24-11.51-40.14
		c-1.9-13.41-3.32-26.87-2.8-40.44c0.1-2.45,0.32-4.92,0.85-7.3c0.44-2,1.45-4.07,3.98-3.87c2.51,0.19,4.94,1.11,5.63,3.9
		c0.69,2.75-0.24,5.78,1.34,8.42c2.52-0.12,3.11-2.18,4.03-3.94c0.56-1.08,1.1-2.2,1.84-3.16c2.06-2.66,6.67-1.02,8.14-4.78
		c1.19-3.04,2.09-6.26,3.72-9.06c1.66-2.84,4.38-4.92,7.42-6.28c7.43-3.31,14.1,0.35,15.27,8.44c0.47,3.24,0.8,6.57,0.61,9.82
		c-1.15,19.58,3.64,38.3,8.18,57.04c0.67,2.78,1.68,5.51,2.84,8.13c0.98,2.21,2.07,4.56,3.74,6.23c2.39,2.39,4.23-1.47,6.58-1.23
		c1.59,0.16,3.18,0.6,4.76,0.53c1.35-0.07,2.24-1.34,2.13-2.58c-0.24-2.84-0.6-5.71-1.3-8.47c-1.42-5.62-1.84-11.33-2.08-17.08
		c-0.14-3.4,0.27-6.37,3.91-8.17c2.8-1.39,3.66-4.25,3.74-7.3c0.06-2.04,0.08-4.09,0.37-6.1c0.08-0.59,0.95-1.15,1.58-1.55
		c0.83-0.52,1.66-0.27,2.09,0.64c0.87,1.82,1.94,3.62,2.38,5.56c0.73,3.19,1.43,6.48,1.46,9.73c0.13,16.01,6.65,30.31,12.79,44.41
		c6.89,15.81,15.83,30.69,30.63,40.88c4.06,2.8,8.08,5.62,6.5,11.89c-0.42,1.68,1.81,3.43,3.94,4.18c1.58,0.56,3.32,1.84,2.21,3.51
		c-0.61,0.92-2.98,1.08-4.48,0.9c-6.28-0.74-11.52-4.05-16.67-7.39c-2.39-1.55-4.83-3.34-6.55-5.56
		c-5.11-6.6-12.88-8.44-19.88-11.65c-0.84-0.39-2.44,0.17-3.33,0.8c-1.03,0.73-0.95,2.1-0.37,3.28c0.18,0.36,0.33,0.76,0.59,1.07
		c14.01,16.68,28.29,33.01,48.46,42.8c7.74,3.76,15.19,8.14,22.65,12.44c26.47,15.26,55.55,21.83,85.42,25.8
		c14.63,1.94,29.24,3.56,44.12,2.6c11.1-0.72,22.07-2.14,32.94-4.12c16.11-2.93,32.2-6.18,47.28-12.93
		c4.85-2.17,9.58-4.63,14.33-7.01c1.09-0.55,1.98-1.65,3.1-1.94c14.88-3.93,25.51-14.13,36.21-24.28c1.7-1.61,3.7-2.88,7.2-2.54
		c-2.67,4.95-5.85,8.78-9.89,12.21c-12.63,10.74-27.2,18.23-41.7,25.94c-13.5,7.18-28.28,10.8-42.52,15.85
		c-6.83,2.42-14.51,2.42-21.77,3.68c-2.81,0.49-5.91,0.84-8.22,2.3c-6.59,4.13-13.88,4.61-21.25,5.28
		c-7.35,0.66-14.68,1.54-21.99,2.51c-20.04,2.66-40.17,3.15-59.99-0.66c-16.02-3.08-32.08-6.71-47.32-12.79
		c-15.99-6.39-31.58-13.72-46.11-23.08c-0.65-0.42-1.05-1.24-1.55-1.85c-0.05,0.93-0.22,1.04-0.5,0.35
		C987.18,1758.71,987.46,1758.68,987.74,1758.66z"/>
	<path class="st0" d="M908.97,1454.35c-3.3,1.35-4.59,4.5-5.84,7.32c-7.64,17.23-16.78,33.85-21.02,52.46
		c-0.63,2.75-2.11,5.32-3.34,7.91c-0.28,0.59-1.1,1.22-1.72,1.28c-1.74,0.17-1.81-1.37-1.84-2.47c-0.35-14.11,3.11-27.69,5.98-41.33
		c1.52-7.22,3.35-14.39,5.26-21.52c2.78-10.37,7.17-20.1,12.82-29.18c7.8-12.54,15.69-25.09,25.66-36.04
		c16.07-17.66,33.47-33.78,54.89-44.99c4.34-2.27,8.54-4.85,12.63-7.55c5.84-3.85,11.57-7.61,18.81-8.6c3.1-0.42,6.14-2.2,8.92-3.85
		c14-8.31,29.45-12.4,45.26-14.85c14.99-2.32,30.16-3.45,45.24-5.13c10.3-1.14,20.52,0.3,30.7,1.27c13.07,1.25,26.1,2.96,39.09,4.87
		c15.56,2.29,30.39,6.84,43.65,15.64c2.73,1.82,5.43,3.61,6.46,7.09c0.78,2.64-0.27,5.06-2.81,5.8c-4.58,1.34-8.83,0.71-13.06-1.53
		c-20.8-11-43.53-13.87-66.53-15.33c-7.35-0.47-14.77,0.26-22-1.89c-1.92-0.57-4.09-0.53-6.12-0.42
		c-14.61,0.81-35.55,1.7-51.99,8.14c3.19,6.88,3.02,9.86-2.56,13.04c-10.58,6.02-20.6,12.78-33.57,14.22
		c-17.81,1.97-33.95,8.97-49.07,18.19c0.84,2.4,2.57,0.95,3.86,0.76c1.19-0.17,2.28-0.96,3.48-1.18c4.91-0.94,9.86-4.41,14.73,0.09
		c-1.49,5.34-6.32,7.2-10.42,9.6c-9.6,5.62-18.73,11.85-26.99,19.3c-0.89,0.8-3.21,1.96-1.08,3.63c0.69,0.55,2.69,0.46,3.35-0.15
		c4.99-4.53,12.1-4.7,17.35-8.86c4.81-3.8,10.62-6.34,15.37-10.19c7.83-6.35,17.47-6.54,26.51-8.79c1.45-0.36,3.2,0.34,4.79,0.65
		c3.31,0.65,6.39,1.48,6.96,5.66c0.7,5.09-0.51,8.23-4.46,10.47c-1.07,0.6-2.19,1.18-3.35,1.53c-14.74,4.36-27.29,13.1-40.55,20.38
		c-8,4.39-14.25,10.63-19.8,18.04c-8.14,10.86-16.16,21.69-22.63,33.67c-4.38,8.11-6.29,16.82-8.11,25.68
		c-1.56,7.59-1.63,15.51-4.87,22.72c-0.27,0.6-0.93,1.43-1.43,1.45c-1.63,0.05-1.77-1.3-1.68-2.5c0.28-4.09,0.61-8.18,0.98-12.26
		c0.27-2.95-0.31-5.52-1.94-8.15c-4.93-7.95-4.14-16.46-1.57-24.93c2.64-8.69,6.67-16.75,11.73-24.3c0.68-1.02,1.35-2.1,1.71-3.25
		c0.2-0.65-0.15-1.55-0.46-2.24c-0.42-0.92-1.2-0.98-2.01-0.24c-2.77,2.52-5.98,5.28-9.57,5.03c-4.77-0.33-6.68,2.08-8.45,5.53
		c-3.17,6.19-7.26,11.93-8.94,18.85c-0.38,1.56-0.84,3.71-1.97,4.38c-4.51,2.67-5.15,9.88-11.76,9.94
		c-4.52-5.53,0.82-9.7,2.13-14.34c1.66-5.89,3.95-11.61,5.91-17.41C909.76,1455.21,909.26,1454.78,908.97,1454.35z M936.73,1484.47
		c-0.15-0.94,0.39-2.15-0.96-2.7c-0.22,0.72-0.62,1.44-0.63,2.17c-0.01,0.97-0.39,2.19,0.93,2.75
		C936.28,1485.96,936.5,1485.23,936.73,1484.47z"/>
	<path class="st0" d="M1384.96,1655.14c-0.89-1.41-1.65-2.9-1-4.6c1.48-3.86,2.94-7.57-0.52-11.35c-1.17-1.28-0.2-3.37,0.96-4.46
		c7.93-7.41,10.29-17.35,13.3-27.23c7.59-24.96,7.22-50.12,3.24-75.5c-0.32-2.02-0.82-4.03-1.4-5.99c-0.34-1.15-1.01-2.21-1.48-3.21
		c-1.78-0.77-1.89,0.62-2.44,1.52c-6.04,9.82-6.35,9.79-7.2,20.97c-0.97,12.67-5.99,23.68-12.71,34.12c-0.35,0.54-1.3,1.1-1.87,1.01
		c-1.47-0.25-1.61-1.45-1.44-2.76c0.86-6.5,1.49-13.04,2.59-19.5c0.97-5.74,1.3-11.35-0.19-17.06c-1.76-6.76-1.45-13.82-2.83-20.71
		c-1.79-9-6.55-16.76-9.01-25.43c-6.28-22.13-20.35-38.86-37.13-53.94c-10.16-9.13-21.68-16.22-32.77-23.94
		c-5.96-4.15-13.17-6.39-18.45-11.82c-3.17-3.26-6.17-6.56-8.57-10.42c-5.65-9.07-1-18.33,9.88-19.2c4.52-0.36,8.92,0.71,13.25,2.26
		c13.02,4.64,24.12,12.47,34.08,21.64c11.44,10.53,23.11,20.98,32.06,33.92c2.74,3.96,5.41,7.96,8.11,11.96
		c6.6-4.99,3.55-11.47,4.29-18.05c5.82,2.53,10.59,6.01,14.52,10.61c19.83,23.26,33.44,49.68,38.95,79.83
		c2.73,14.92,4.46,30.07,2.8,45.34c-0.18,1.63-0.55,3.28-0.49,4.9c0.63,16.31-5.43,30.51-13.91,43.89
		c-1.53,2.42-3.29,4.47-3.62,7.56c-0.2,1.91-1.33,3.92-2.56,5.49c-7.36,9.38-12.44,20.15-18.61,30.26L1384.96,1655.14z"/>
</g>
</svg>
