<?xml version="1.0" encoding="utf-8"?>
<!-- Generator: Adobe Illustrator 24.3.0, SVG Export Plug-In . SVG Version: 6.00 Build 0)  -->
<svg version="1.1" id="Слой_6" xmlns="http://www.w3.org/2000/svg" xmlns:xlink="http://www.w3.org/1999/xlink" x="0px" y="0px"
	 viewBox="0 0 2252 3072" style="enable-background:new 0 0 2252 3072;" xml:space="preserve">
<style type="text/css">
	.st0{stroke:#B49CEF;stroke-width:5;stroke-miterlimit:10;}
	.st1{stroke:#B49CEF;stroke-width:8;stroke-miterlimit:10;}
</style>
<g>
	<g>
		<path class="st0" d="M1251.22,1509.8c-0.94,1.33-2,2.6-2.79,4.01c-3.74,6.62-3.71,6.63-12.14,4.18
			c-2.72,13.51-12.13,22.85-20.76,32.69c-3.28,3.74-7.26,6.58-11.56,9.02c-13.18,7.47-25.81,15.8-38.56,23.98
			c-8.79,5.64-11.71,14.43-15.19,23.1c-0.68,1.68,0.03,4.04,0.43,6.02c1.45,7.21,2.65,14.52,4.72,21.56
			c1.51,5.15-0.47,8.74-3.35,12.35c-0.43,0.53-1.79,1.11-1.98,0.92c-5.03-4.94-10.45,3.21-15.97-0.64
			c-2.12-1.48-6.26-0.29-9.43,1.06c-6.09,2.59-6.21,2.48-9.88-1.83c-1.29-1.51-2-3.6-5.08-3.74c-0.23,6.12-1.32,12.09-6.68,16.19
			c-1.04,0.79-2.09,1.57-3.16,0.88c-0.93-0.6-1.66-1.75-2.1-2.81c-0.45-1.1-0.55-2.39-0.62-3.6c-1.44-25.96,4.68-50.3,15.85-73.53
			c1.88-3.9,3.35-4.49,8.92-3.19c2.25,0.53,4.05,0.53,5.58-1.06c4.07-4.24,9.31-6.64,14.35-9.35c17.03-9.16,32.65-20.2,46.49-33.8
			c5.66-5.56,8.57-11.82,8.37-19.67c-0.08-3.28-0.17-6.57,0.01-9.85c0.86-16.1-5.04-29.66-15.45-41.53
			c-1.6-1.83-3.21-3.96-5.28-5.01c-10.6-5.38-21.38-10.69-33.74-9.7c-9.8,0.79-19.68,1.57-29.28,3.55
			c-17.13,3.53-22.48,11.48-20.48,28.97c0.74,6.51,1.95,13.03,5.23,18.86c3.06,5.43,5.54,6.19,10.71,2.88
			c4.82-3.08,9.23-6.8,14.01-9.95c3.85-2.53,5.79-5.12,3.67-10.03c-1.34-3.1-0.15-6.65,2.55-8.86c3.48-2.84,9.11-2.89,12.51,0.02
			c4.09,3.49,7.97,6.86,13.83,6.9c1.76,0.01,2.13,2.33,2.1,3.93c-0.08,4.57-1.17,8.87-3.25,13.01c-11.15,22.19-28.99,37-52.61,43.01
			c-18.42,4.69-29.15-0.03-38.51-14.04c-4.39-6.57-7.62-13.42-8.17-21.56c-0.53-7.75-2.09-15.43-3.05-23.16
			c-0.72-5.85,0.19-11.36,3.25-16.58c4.96-8.47,10.94-16.33,14.93-25.4c1.78-4.06,5.74-5.53,10.04-6.12c5.82-0.81,6.87,0,8.01,7.2
			c9.4-5.24,18.86-9.89,29.9-10.12c6.66-0.14,11.58-6.18,18.46-6.21c0.55,0,1.32-1.01,1.62-1.71c2.67-6.24,7-5.68,13.04-5.05
			c13.9,1.45,26.92,5.59,39.74,10.4c1.76-3.19-1.48-4.88-1.11-7.25c0.18-1.13,0.47-2.54,1.25-3.18c0.79-0.65,2.63-1.09,3.33-0.61
			c11.77,8,24.29,15.16,32.24,27.61c3.97,6.22,7.97,12.43,11.71,18.79c4.19,7.12,7.04,14.75,8.36,22.98
			c1.37,8.48,3.13,16.89,4.73,25.33C1250.99,1510.02,1251.22,1509.8,1251.22,1509.8z"/>
		<path class="st1" d="M1161.1,1723.31c-0.76-0.04-1.81,0.23-2.35-0.17c-4.41-3.26-8.37-0.3-12.61,0.5
			c-4.66,0.88-6.36,3.06-7.31,7.8c-1.04,5.16-6.2,7.18-11.92,5.78c-7.67-1.88-13.05-6.97-16.4-13.83
			c-4.27-8.75-3.45-18.29-2.95-27.66c0.06-1.17,0.66-2.37,1.21-3.46c3.65-7.37,17.72-14.3,26.11-12.37c2.82,0.65,4.45,0.83,6-1.87
			c1.52-2.65,4.25-2.63,6.4-1.15c6.02,4.16,12.19,8.02,14.04,16.19c1.44,6.35,4.31,12.36,6.47,18.56c0.53,1.53,0.89,3.15,1.1,4.75
			c0.52,4.04-1.08,5.94-5.31,6.52C1162.76,1723.01,1161.96,1723.17,1161.1,1723.31z"/>
	</g>
	<path class="st1" d="M1250.99,1510.02c0.42,1.14,0.88,2.26,1.23,3.42c0.31,1.01-0.12,1.81-0.9,1.59c-0.48-0.14-1.03-1.14-0.99-1.71
		c0.08-1.17,0.53-2.31,0.86-3.49C1251.22,1509.8,1250.99,1510.02,1250.99,1510.02z"/>
</g>
</svg>
